<svg width="1280" height="506" viewBox="0 0 1280 506" fill="none" xmlns="http://www.w3.org/2000/svg">
<path d="M282.453 125.414H289.28L302.507 126.694L313.6 128.827L324.267 131.814L333.227 135.227L343.893 140.347L352.853 145.894L358.827 150.587L364.8 155.707L370.347 161.254L374.187 165.947L379.733 173.201V174.054L372.907 178.747L366.933 183.441L361.387 188.561L359.253 190.267L356.267 193.681L351.573 198.801L345.173 207.334L341.333 213.734L336.64 222.694L333.227 231.654L330.667 240.187L328.96 249.147L328.107 257.254V271.761L329.387 283.281L331.947 294.801L334.933 303.761L338.773 312.294L342.187 318.694L347.307 326.374L352 332.347L357.12 337.894L362.667 343.441L367.36 347.281L375.467 353.254L381.867 357.094L391.68 362.214L392.107 363.494L387.413 377.147L382.72 388.241L377.6 399.334L371.627 410.854L364.8 422.374L357.973 432.614L353.28 439.441L347.733 447.121L343.893 452.241L339.2 458.214L333.653 464.614L324.693 473.574L317.44 479.121L310.613 483.387L302.933 486.801L295.68 488.934L290.56 489.787H276.053L268.373 488.507L259.413 485.947L248.747 481.681L237.227 476.987L227.84 474.001L219.307 472.294L211.627 471.441H199.68L188.587 472.721L177.92 475.281L167.253 479.121L151.893 485.521L142.507 488.507L133.547 490.214H118.187L110.933 488.507L104.533 485.947L97.28 482.107L91.3067 477.841L85.76 473.147L80.64 468.454L77.6533 465.467L74.6667 462.054L69.12 455.654L64.8533 450.107L59.7333 443.281L53.76 434.747L49.0667 427.921L43.52 419.387L37.5467 409.147L31.5733 398.054L24.7467 383.547L20.0533 372.027L15.36 359.227L11.52 347.281L7.25333 331.494L3.84 315.281L1.70667 301.201L0.426667 288.827L0 281.574V260.241L0.853333 249.147L2.56 236.774L5.54667 223.121L9.38667 210.747L14.08 199.227L18.3467 190.694L22.6133 183.441L26.88 177.041L31.1467 171.494L35.84 165.947L40.96 160.401L44.3733 157.414L48.64 153.574L55.4667 148.454L62.72 143.761L70.4 139.494L79.7867 135.227L91.3067 131.387L100.267 129.254L108.8 127.974L113.493 127.547H127.573L136.533 128.827L148.48 131.814L160.853 136.081L178.347 142.907L188.587 146.321L194.56 147.601H203.093L210.347 145.894L219.307 142.907L236.8 136.081L248.747 131.814L261.12 128.401L269.653 126.694L276.053 125.841L282.453 125.414Z" fill="#E6E6E6"/>
<path d="M644.267 150.16H715.093L716.8 154.427L724.48 179.173L762.027 300.347L769.707 325.093L797.867 415.973L798.72 420.24H800.427L801.28 416.4L808.533 392.933L836.693 302.053L844.373 277.307L872.533 186.427L880.213 161.68L883.627 150.587L884.053 150.16H953.6L952.32 154.853L943.787 179.173L936.533 199.653L928.427 222.693L921.6 241.893L913.493 264.933L906.24 285.413L898.133 308.453L890.027 331.067L880.64 357.947L873.387 378.427L865.28 401.467L857.173 424.08L847.787 450.96L840.533 471.44L834.987 486.8H763.733L761.6 481.68L754.773 462.053L748.373 444.133L738.987 417.68L732.16 398.48L713.387 345.573L706.56 326.373L697.173 299.92L690.347 280.72L680.96 254.267L674.133 235.067L664.747 208.613L657.92 189.413L648.533 162.96L644.267 151.013V150.16Z" fill="#E6E6E6"/>
<path d="M477.014 69.5195H544V150.16H608.854V203.066L608.427 203.493H544L544.427 397.2L545.28 404.88L547.414 412.986L550.827 419.813L554.24 424.08L557.654 427.066L562.774 430.053L570.454 432.613L579.414 433.893H591.787L608.427 432.613V486.373L601.6 487.653L587.52 488.933L577.28 489.36H562.347L549.12 488.506L537.174 486.8L526.507 484.24L518.827 481.68L510.72 477.84L506.027 474.853L500.48 470.586L494.08 464.186L489.814 458.213L485.974 451.386L482.56 442.853L480 433.893L478.294 424.933L477.014 412.986L476.587 401.466V203.493H427.52L427.094 203.066V150.16H476.587V69.9462L477.014 69.5195Z" fill="#E6E6E6"/>
<path d="M1085.01 150.16H1146.88V287.973H1278.29V348.987H1146.88V486.8H1085.44L1085.01 486.373V348.987H953.6V287.973H1085.01V150.16Z" fill="#E6E6E6"/>
<path d="M286.72 9.78711H291.84L292.267 11.4938V26.4271L290.987 36.2404L288.427 46.9071L284.587 57.5738L280.747 66.1071L275.627 75.0671L270.08 83.1738L266.24 87.8671L262.4 92.1338L257.707 96.8271L253.014 100.667L247.467 104.934L239.36 110.054L232.107 113.894L223.147 117.307L215.894 119.44L208.214 120.72L203.094 121.147H197.547L194.56 120.294L194.134 115.6V107.494L195.414 96.8271L197.974 86.5871L200.96 78.0538L204.8 69.5204L209.494 60.9871L213.76 54.5871L218.027 49.0404L222.72 43.4938L230.827 35.3871L236.8 30.6938L242.347 26.8538L250.88 21.7338L261.547 16.6138L270.934 13.2004L281.174 10.6404L286.72 9.78711Z" fill="#E6E6E6"/>
</svg>
