<svg width="24" height="24" viewBox="0 0 24 24" fill="none" xmlns="http://www.w3.org/2000/svg">
<g clip-path="url(#clip0_15_67)">
<path d="M19.125 13.914C18.2283 13.9161 17.3597 13.6013 16.6725 13.0252C15.9853 12.4492 15.5237 11.6488 15.3692 10.7656C15.2147 9.88227 15.3771 8.97279 15.8279 8.19763C16.2787 7.42248 16.9889 6.8315 17.833 6.529C16.5592 5.85997 15.1343 5.53113 13.6962 5.57431C12.2581 5.61749 10.8554 6.03123 9.6241 6.77548C8.39277 7.51973 7.37444 8.56928 6.6677 9.82251C5.96096 11.0757 5.58975 12.4902 5.59 13.929C5.59 16.1454 6.47047 18.271 8.03771 19.8383C9.60495 21.4055 11.7306 22.286 13.947 22.286C15.1743 22.2862 16.3866 22.0161 17.4977 21.4949C18.6088 20.9737 19.5914 20.2141 20.3758 19.2702C21.1602 18.3263 21.7271 17.2212 22.0361 16.0335C22.3452 14.8457 22.3888 13.6045 22.164 12.398C21.8096 12.8692 21.3505 13.2515 20.8228 13.5146C20.2952 13.7777 19.7146 13.9145 19.125 13.914ZM11.893 0C5.325 0 0 5.325 0 11.892C0 18.461 5.325 23.785 11.892 23.785C12.165 23.785 12.434 23.775 12.701 23.758C7.225 23.428 2.884 18.885 2.884 13.325C2.884 7.552 7.564 2.872 13.338 2.872C18.865 2.872 23.389 7.162 23.765 12.592C23.778 12.361 23.785 12.128 23.785 11.892C23.785 5.325 18.462 0 11.893 0Z" fill="#F47521"/>
</g>
<defs>
<clipPath id="clip0_15_67">
<rect width="24" height="24" fill="white"/>
</clipPath>
</defs>
</svg>
