<svg width="91" height="26" viewBox="0 0 91 26" fill="none" xmlns="http://www.w3.org/2000/svg">
<g clip-path="url(#clip0_250_132)">
<path fill-rule="evenodd" clip-rule="evenodd" d="M88.1519 0.226562H51.5412C50.4022 0.355308 49.7757 1.05731 49.665 2.33888V23.5452C49.7746 24.8248 50.3997 25.5241 51.5311 25.658H88.1609C89.2927 25.5241 89.9174 24.8243 90.0272 23.5452V2.33888C89.9168 1.05731 89.2902 0.355308 88.1519 0.226562Z" fill="#FF9000"/>
<path fill-rule="evenodd" clip-rule="evenodd" d="M62.4081 9.99877C62.1341 9.60779 61.7271 9.28593 61.186 9.03431C60.6968 8.80686 60.1541 8.68307 59.5576 8.66116C59.5473 8.66049 59.5379 8.65982 59.5278 8.65937C58.2958 8.59319 56.72 8.95548 55.9846 9.66855V4.67188H53.0615V20.044H55.9846V14.4662C55.9846 13.5291 56.0733 12.8214 56.2501 12.3428C56.4272 11.8631 56.7059 11.505 57.0875 11.2674C57.4689 11.03 57.9021 10.9108 58.3879 10.9108C58.8107 10.9108 59.1632 11.0036 59.4437 11.1888C59.7245 11.3743 59.9206 11.6243 60.0313 11.9387C60.142 12.2536 60.1978 12.9942 60.1978 14.1615V20.044H63.1207V13.5114C63.1207 12.512 63.0703 11.7743 62.9697 11.2993C62.8693 10.8236 62.6817 10.3902 62.4081 9.99877Z" fill="black"/>
<path fill-rule="evenodd" clip-rule="evenodd" d="M71.9471 13.6058C71.9471 15.1998 71.8745 16.2013 71.7288 16.6103C71.583 17.0189 71.3125 17.3618 70.9172 17.6371C70.5224 17.914 70.0747 18.0518 69.5754 18.0518C69.1385 18.0518 68.7775 17.949 68.4933 17.7426C68.2092 17.5364 68.0127 17.2567 67.9056 16.9035C67.798 16.5505 67.7444 15.5914 67.7444 14.025V8.9082H64.8213V15.9548C64.8213 17.0033 64.9531 17.8248 65.2161 18.4188C65.4799 19.0133 65.9063 19.4746 66.4961 19.8032C67.0857 20.1318 67.7512 20.296 68.4933 20.296C68.6043 20.296 68.7143 20.292 68.8234 20.2838C68.8268 20.2838 68.8292 20.2838 68.8321 20.2834C70.6925 20.2292 71.6618 19.3783 72.155 18.8175V20.044H74.87V8.9082H71.9471V13.6058Z" fill="black"/>
<path fill-rule="evenodd" clip-rule="evenodd" d="M83.7692 17.1346C83.3152 17.6905 82.7655 17.9676 82.1204 17.9676C81.281 17.9676 80.6083 17.5762 80.1018 16.7933C79.7415 16.2413 79.5611 15.3884 79.5611 14.2349C79.5611 13.1164 79.7935 12.283 80.2582 11.7343C80.7228 11.1857 81.3054 10.9113 82.0059 10.9113C82.7202 10.9113 83.3064 11.1927 83.7642 11.7551C84.2218 12.3177 84.4508 13.2357 84.4508 14.5071C84.4508 15.7033 84.2238 16.5783 83.7692 17.1346ZM86.1254 10.1295C85.5038 9.43749 84.6694 8.99342 83.7603 8.78923C83.4999 8.71944 83.2025 8.66975 82.8718 8.65529C81.6696 8.54507 80.1254 9.02979 79.4075 9.63716L79.5816 4.67188H76.6582V20.0445H79.3739V19.1977C80 19.7059 81.0047 20.2959 82.5359 20.2959C82.5959 20.2959 82.6529 20.2954 82.708 20.2941C82.7479 20.2954 82.7875 20.2959 82.8274 20.2959C84.1105 20.2959 85.2013 19.7818 86.0992 18.7546C86.9973 17.7264 87.446 16.2625 87.446 14.3612C87.446 12.5222 87.0056 11.1121 86.1254 10.1295Z" fill="black"/>
<path fill-rule="evenodd" clip-rule="evenodd" d="M8.58402 9.8563C8.33977 10.2167 8.00253 10.4815 7.57207 10.6502C7.14161 10.8191 6.28763 10.9038 5.01149 10.9038H3.23878V6.31559H4.80376C5.97078 6.31559 6.74767 6.35263 7.13444 6.42581C7.65968 6.5218 8.0935 6.76055 8.43657 7.14272C8.77919 7.52534 8.95084 8.01028 8.95084 8.59867C8.95084 9.0766 8.82849 9.49582 8.58402 9.8563ZM9.04931 3.82289C8.45124 3.66095 7.16725 3.58008 5.19757 3.58008H0V19.7495H3.23888V13.6504H5.35062C6.81701 13.6504 7.93675 13.5729 8.70983 13.4187C9.27944 13.2935 9.83897 13.0378 10.39 12.6521C10.9403 12.2663 11.3943 11.7348 11.7522 11.0579C12.1096 10.3821 12.2884 9.54754 12.2884 8.55439C12.2884 7.26784 11.9781 6.21823 11.3582 5.40556C10.738 4.59333 9.96827 4.06548 9.04931 3.82289Z" fill="#E6E6E6"/>
<path fill-rule="evenodd" clip-rule="evenodd" d="M20.9629 16.5621C20.419 17.1796 19.7461 17.4884 18.9439 17.4884C18.1412 17.4884 17.4665 17.1796 16.9193 16.5621C16.3723 15.9441 16.0989 15.0542 16.0989 13.8928C16.0989 12.7309 16.3723 11.8412 16.9193 11.2234C17.4665 10.6059 18.1412 10.2972 18.9439 10.2972C19.7461 10.2972 20.419 10.6059 20.9629 11.2234C21.5063 11.8412 21.7778 12.7239 21.7778 13.8708C21.7778 15.0476 21.5063 15.9441 20.9629 16.5621ZM18.9327 7.77148C17.7948 7.77148 16.7645 8.0249 15.842 8.53265C14.9185 9.03973 14.2059 9.77494 13.7024 10.7383C13.1991 11.7016 12.9473 12.6979 12.9473 13.7274C12.9473 15.0729 13.1991 16.2147 13.7024 17.1518C14.2059 18.0896 14.9405 18.8011 15.9074 19.2858C16.8739 19.771 17.8898 20.0145 18.9549 20.0145C20.6763 20.0145 22.1044 19.4313 23.2387 18.2658C24.373 17.1006 24.9403 15.6317 24.9403 13.8591C24.9403 12.1023 24.3788 10.6479 23.2553 9.49757C22.1315 8.34699 20.6909 7.77148 18.9327 7.77148Z" fill="#E6E6E6"/>
<path fill-rule="evenodd" clip-rule="evenodd" d="M31.4728 7.81597C30.563 7.9332 29.6936 8.67315 29.3131 9.14408V8.03574H26.457V19.7491H29.5318V16.1321C29.5318 14.139 29.6172 12.8303 29.7888 12.2051C29.9602 11.5799 30.1955 11.1485 30.4947 10.9091C30.7938 10.6703 31.1586 10.5506 31.5893 10.5506C32.0339 10.5506 32.5152 10.7193 33.0333 11.0577L33.9856 8.35558C33.3363 7.96573 32.6611 7.77148 31.9608 7.77148C31.7919 7.77148 31.6294 7.78706 31.4728 7.81597Z" fill="#E6E6E6"/>
<path fill-rule="evenodd" clip-rule="evenodd" d="M46.1237 10.3862C46.0105 9.90107 45.8102 9.46695 45.5224 9.08456C45.2336 8.70216 44.8087 8.38798 44.2472 8.14178C43.6852 7.89536 43.0654 7.77249 42.3866 7.77249C41.1564 7.70201 39.1603 8.17544 38.5571 9.13809V8.03675H35.7012V19.7501H38.776V14.4451C38.776 13.1364 38.8544 12.239 39.0111 11.7543C39.1677 11.2685 39.4581 10.8791 39.8812 10.5845C40.3043 10.2904 40.782 10.1434 41.3144 10.1434C41.7303 10.1434 42.0857 10.2468 42.3813 10.4522C42.6771 10.6579 42.8906 10.947 43.0217 11.3181C43.153 11.6899 43.2187 12.5076 43.2187 13.7722V19.7501H46.2931V12.4708C46.2931 11.5661 46.2366 10.8714 46.1237 10.3862Z" fill="#E6E6E6"/>
</g>
<defs>
<clipPath id="clip0_250_132">
<rect width="91" height="26" fill="white"/>
</clipPath>
</defs>
</svg>
