<svg width="225" height="50" viewBox="0 0 225 50" fill="none" xmlns="http://www.w3.org/2000/svg">
<g clip-path="url(#clip0_249_110)">
<path d="M4.46961 24.6096C5.27948 25.5872 6.30282 26.366 7.46088 26.8861C8.61895 27.4062 9.88088 27.6537 11.1496 27.6096C12.1547 27.6628 13.1597 27.5033 14.0988 27.1414C15.038 26.7796 15.8902 26.2235 16.5996 25.5096C17.2466 24.8495 17.7564 24.0678 18.0997 23.2096C18.4429 22.3514 18.6129 21.4338 18.5996 20.5096C18.6428 19.631 18.4923 18.7537 18.1588 17.9398C17.8253 17.1258 17.3169 16.3952 16.6696 15.7996C15.5634 14.733 14.0959 14.1225 12.5596 14.0896C11.9569 14.1078 11.3574 14.1848 10.7696 14.3196C10.3028 14.4556 9.82389 14.5461 9.33961 14.5896C8.27961 14.5896 7.74961 13.9496 7.74961 12.6696C7.74961 10.5162 8.82294 8.66623 10.9696 7.11957C11.5827 6.67881 12.2278 6.28438 12.8996 5.93957C14.9973 5.03196 17.2643 4.58195 19.5496 4.61957C24.164 4.54679 28.6936 5.86386 32.5496 8.39957L29.7096 12.4796L33.6496 15.0796L38.9896 7.45957L37.2696 6.10957C32.2498 2.05929 25.9688 -0.102788 19.5196 -0.000431885C9.11961 -0.000431885 1.84961 6.37957 1.84961 15.5196V15.6396V16.1696C1.85961 19.7596 2.76961 22.5996 4.46961 24.6096Z" fill="#1E7B85"/>
<path d="M31.35 22.221C30.3449 22.1677 29.34 22.3272 28.4008 22.6891C27.4616 23.051 26.6095 23.6071 25.9 24.321C25.253 24.9811 24.7432 25.7628 24.3999 26.6209C24.0567 27.4791 23.8868 28.3968 23.9 29.321C23.8625 30.1953 24.0167 31.0673 24.3518 31.8758C24.687 32.6842 25.1949 33.4096 25.84 34.001C26.9525 35.0938 28.4408 35.7199 30 35.751C30.6028 35.733 31.2023 35.656 31.79 35.521C32.2568 35.3848 32.7357 35.2944 33.22 35.251C34.28 35.251 34.81 35.891 34.81 37.171C34.8105 37.6218 34.7602 38.0713 34.66 38.511C32.9 42.831 28.37 45.311 21.83 45.311C16.3498 45.3319 11.0101 43.5777 6.61 40.311L10.17 36.151L6.41 33.251L0 40.841L1.63 42.301C7.1766 47.241 14.3525 49.9582 21.78 49.931C22.62 49.931 23.43 49.931 24.22 49.821C28.5159 49.6692 32.6335 48.0652 35.9 45.271C39.0133 42.4643 40.57 38.5876 40.57 33.641C40.57 30.0543 39.7233 27.2543 38.03 25.241C37.2221 24.2597 36.1997 23.4771 35.0415 22.9535C33.8833 22.4299 32.6204 22.1793 31.35 22.221Z" fill="#1E7B85"/>
<path d="M148.2 10.4453H151.15V36.5453H148.2V10.4453Z" fill="#E6E6E6"/>
<path d="M177.58 23.0553C178.818 22.6007 179.883 21.77 180.625 20.6797C181.368 19.5893 181.75 18.294 181.72 16.9753C181.72 12.9753 178.36 10.4453 173.22 10.4453H162.1V36.5453H173.7C179.41 36.5453 183.17 33.8953 183.17 29.3853C183.17 25.7253 180.67 23.9853 177.58 23.0553ZM165 13.0953H173C176.73 13.0953 178.78 14.7753 178.78 17.3853C178.78 20.4853 176.32 22.0853 172.78 22.0853H165V13.0853V13.0953ZM173.76 33.9053H165V24.7253H173.24C177.79 24.7253 180.18 26.3653 180.18 29.2353C180.18 32.1053 177.73 33.9053 173.78 33.9053H173.76Z" fill="#E6E6E6"/>
<path d="M96.5804 34.2761C90.8404 34.2761 86.4704 29.5361 86.4704 23.4661C86.4704 17.3961 90.8004 12.7261 96.5804 12.7261C98.1185 12.7361 99.6384 13.0586 101.048 13.674C102.458 14.2894 103.727 15.1849 104.78 16.3061L106.78 14.1461C105.465 12.7853 103.881 11.7141 102.128 11.0012C100.375 10.2883 98.492 9.94936 96.6004 10.0061C88.9204 10.0061 83.4004 16.0861 83.4004 23.5461C83.4004 31.0061 89.0004 36.9961 96.5104 36.9961C98.4868 37.0416 100.449 36.6554 102.261 35.8644C104.073 35.0733 105.69 33.8966 107 32.4161L105 30.5161C102.51 32.8961 100.16 34.2761 96.5804 34.2761Z" fill="#E6E6E6"/>
<path d="M67.08 22.0856C61.33 20.8556 60 19.4756 60 16.9756C60 14.4756 62.15 12.7256 65.55 12.7256C68.3193 12.729 70.9939 13.7342 73.08 15.5556L74.8 13.2856C72.2419 11.1247 68.9773 9.98198 65.63 10.0756C60.63 10.0756 57.05 13.0756 57.05 17.2356C57.05 21.3956 59.81 23.5056 65.81 24.8056C71.29 25.9656 72.6 27.3456 72.6 29.8056C72.6 32.4556 70.29 34.2856 66.78 34.2856C65.1088 34.3072 63.4504 33.9916 61.9041 33.3576C60.3577 32.7235 58.955 31.7842 57.78 30.5956L56 32.7256C58.876 35.4586 62.7028 36.9649 66.67 36.9256C71.85 36.9256 75.58 34.0156 75.58 29.5056C75.58 25.4756 72.89 23.3556 67.08 22.0856Z" fill="#E6E6E6"/>
<path d="M136.31 18.247C136.31 13.547 132.62 10.457 126.87 10.457H115.65V36.557H118.6V26.407H126.06L133.63 36.547H137.25L129.25 25.877C133.33 25.147 136.31 22.607 136.31 18.247ZM118.6 23.727V13.167H126.66C130.87 13.167 133.34 15.107 133.34 18.347C133.34 21.587 130.53 23.727 126.61 23.727H118.61H118.6Z" fill="#E6E6E6"/>
<path d="M203.77 10.4453H194.71V36.5453H203.77C211.97 36.5453 217.64 30.8353 217.64 23.4553C217.64 16.0753 212 10.4453 203.77 10.4453ZM203.77 33.8253H197.65V13.1653H203.77C210.37 13.1653 214.58 17.7153 214.58 23.5353C214.58 29.3553 210.37 33.8253 203.77 33.8253Z" fill="#E6E6E6"/>
</g>
<defs>
<clipPath id="clip0_249_110">
<rect width="224.64" height="49.93" fill="white"/>
</clipPath>
</defs>
</svg>
