<svg width="303" height="116" viewBox="0 0 303 116" fill="none" xmlns="http://www.w3.org/2000/svg">
<g clip-path="url(#clip0_249_124)">
<path d="M36.5871 3.554C38.6171 3.554 40.1021 4.643 40.5711 6.586L60.9601 79.568L81.5841 6.586C82.0521 4.72 83.4591 3.554 85.5681 3.554H118.848C120.409 3.554 121.503 5.109 121.034 6.586L88.2241 110.969C87.5991 112.989 86.1931 114 84.0841 114H37.2101C35.1801 114 33.6951 113.067 33.0701 110.969L0.104128 6.586C-0.363872 5.186 0.808127 3.554 2.37013 3.554H36.5871ZM127.206 24.384C127.206 12.104 137.362 2 149.705 2C162.048 2 172.203 12.104 172.203 24.384C172.203 36.664 162.048 46.769 149.705 46.769C137.362 46.769 127.206 36.665 127.206 24.384ZM169.86 110.736C169.86 112.601 168.61 113.922 166.657 113.922H132.752C130.878 113.922 129.55 112.679 129.55 110.736V58.583C129.55 56.718 130.8 55.396 132.752 55.396H166.657C168.531 55.396 169.86 56.64 169.86 58.583V110.736ZM181.421 109.958L213.451 58.738L181.421 7.518C180.25 5.653 181.265 3.554 183.452 3.554H219.7C222.2 3.554 223.684 4.332 224.778 6.197L242.355 36.743L259.932 6.197C261.104 4.332 262.51 3.554 265.01 3.554H300.476C302.664 3.554 303.679 5.575 302.508 7.518L270.478 58.738L302.508 109.958C303.601 111.824 302.664 113.922 300.476 113.922H264.23C261.73 113.922 260.246 113.145 259.152 111.28L241.575 80.734L223.998 111.28C222.904 113.145 221.498 113.922 218.92 113.922H183.453C181.266 113.922 180.251 111.902 181.423 109.958H181.421Z" fill="#E6E6E6"/>
</g>
<defs>
<clipPath id="clip0_249_124">
<rect width="303" height="116" fill="white"/>
</clipPath>
</defs>
</svg>
